<svg aria-hidden="true" style="position: absolute; width: 0; height: 0; overflow: hidden;" version="1.1" xmlns="http://www.w3.org/2000/svg" xmlns:xlink="http://www.w3.org/1999/xlink">
<defs>
<symbol id="icon-currency" viewBox="0 0 32 32">
<path d="M5.053 0c-2.791 0-5.053 2.262-5.053 5.053v0 21.895c0 2.791 2.262 5.053 5.053 5.053v0h21.895c2.791 0 5.053-2.262 5.053-5.053v0-21.895c0-2.791-2.262-5.053-5.053-5.053v0h-21.895zM13.265 13.136c0 0.995 0.765 1.634 3.144 2.253s4.925 1.635 4.925 4.611c0 2.147-1.624 3.332-3.667 3.72v2.253h-3.144v-2.274c-2.012-0.429-3.731-1.718-3.855-4.013h2.305c0.115 1.236 0.964 2.2 3.123 2.2 2.316 0 2.829-1.152 2.829-1.875 0-0.974-0.525-1.896-3.144-2.525-2.924-0.702-4.925-1.907-4.925-4.328 0-2.021 1.635-3.341 3.667-3.782v-2.264h3.144v2.295c2.189 0.535 3.29 2.189 3.363 3.992h-2.316c-0.062-1.309-0.754-2.2-2.619-2.2-1.771 0-2.829 0.797-2.829 1.939z"></path>
</symbol>
<symbol id="icon-diagram" viewBox="0 0 32 32">
<path d="M5.053 0h21.895c2.791 0 5.053 2.262 5.053 5.053v21.895c0 2.791-2.262 5.053-5.053 5.053h-21.895c-2.791 0-5.053-2.262-5.053-5.053v-21.895c0-2.791 2.262-5.053 5.053-5.053zM24.842 13.941c1.080 0 1.965-0.926 1.965-2.058s-0.884-2.058-1.965-2.058c-1.080 0-1.965 0.926-1.965 2.058 0 0.185 0.019 0.36 0.068 0.525l-3.487 3.664c-0.145-0.046-0.311-0.072-0.483-0.072-0.010 0-0.020 0-0.029 0l0.001-0c-0.177 0-0.354 0.020-0.511 0.072l-2.505-2.624c0.050-0.165 0.069-0.35 0.069-0.536 0-1.132-0.884-2.058-1.965-2.058s-1.965 0.926-1.965 2.058c0 0.185 0.020 0.371 0.069 0.536l-4.48 4.683c-0.142-0.046-0.306-0.073-0.477-0.073-0.009 0-0.017 0-0.026 0l0.001-0c-1.080 0-1.965 0.926-1.965 2.059s0.884 2.058 1.965 2.058 1.965-0.926 1.965-2.058c0-0.185-0.019-0.36-0.068-0.525l4.47-4.694c0.157 0.051 0.334 0.072 0.511 0.072s0.354-0.021 0.51-0.072l2.505 2.625c-0.043 0.151-0.068 0.326-0.068 0.505 0 0.010 0 0.021 0 0.031l-0-0.002c0 1.133 0.884 2.059 1.965 2.059s1.965-0.926 1.965-2.059c0-0.185-0.019-0.371-0.068-0.535l3.497-3.654c0.157 0.051 0.324 0.072 0.501 0.072z"></path>
</symbol>
<symbol id="icon-home" viewBox="0 0 32 32">
<path d="M5.053 0c-2.791 0-5.053 2.262-5.053 5.053v0 21.895c0 2.791 2.262 5.053 5.053 5.053v0h21.895c2.791 0 5.053-2.262 5.053-5.053v0-21.895c0-2.791-2.262-5.053-5.053-5.053v0h-21.895zM13.417 17.987v6.901h-5.754v-9.203h-3.453l11.509-10.353 11.508 10.353h-3.453v9.203h-5.754v-6.901h-4.604z"></path>
</symbol>
</defs>
</svg>
